# xmcd
#
# Track frame offsets:
#  150
#  12631
#  24089
#  32720
#  45943
#  54872
#  65683
#  78248
#  92764
#  102045
#  112292
#  122643
#  133672
#  146584
#  156573
#  168677
#  180117
#  190776
#  204125
#  216004
#
# Disc length: 3070 seconds
#
# Revision: 0
# Processed by: cddbd v1.5.1PL2 Copyright (c) Steve Scherf et al.
# Submitted via: Collectorz.com_Music_Collector 6.9
#
DISCID=090bfc14
DTITLE=Various Artist - Swing West Vol. 1
DYEAR=1977
DGENRE=Country
TTITLE0=01 - China Doll - Terry Preston
TTITLE1=02 - You Better Not Do That - Tommy Collins
TTITLE2=03 - Crying Steel Guitar Waltz - Jean Shepard
TTITLE3=04 - Gone - Terry Preston
TTITLE4=05 - A Dear John Letter - Jean Shepard and Ferlin Husky
TTITLE5=06 - Dim Lights, Thick Smoke and Loud,Loud Music - Joe Maphis and Rose Lee
TTITLE6=07 - What-cha Gonna Do Now - Tommy Collins
TTITLE7=08 - The Waltz Of The Angels - Wynn Stewart
TTITLE8=09 - Humdinger - The Farmer Boys
TTITLE9=10 - The Keeper Of The Key - Wynn Stewart
TTITLE10=11 - Kissing My Pillow - Rose Maddox
TTITLE11=12 - I Wish I Was A Single Girl Again - Jan Howard
TTITLE12=13 - Conscience, I'm Guilty - Rose Maddox
TTITLE13=14 - Sing A Little Song Of Heartache - Rose Maddox
TTITLE14=15 - Sing A Sad Song - Merle Haggard
TTITLE15=16 - Please Mr DJ - Merle Haggard
TTITLE16=17 - The Highway Patrol - Red Simpson
TTITLE17=18 - Aprtment #9 - Bobby Austin
TTITLE18=19 - It's Such A Pretty World Today - Wynn Stewart
TTITLE19=20 - I'm A Truck - Red Simpson
EXTD=
EXTT0=
EXTT1=
EXTT2=
EXTT3=
EXTT4=
EXTT5=
EXTT6=
EXTT7=
EXTT8=
EXTT9=
EXTT10=
EXTT11=
EXTT12=
EXTT13=
EXTT14=
EXTT15=
EXTT16=
EXTT17=
EXTT18=
EXTT19=
PLAYORDER=
